<?xml version="1.0" encoding="UTF-8"?>
<!DOCTYPE svg PUBLIC "-//W3C//DTD SVG 1.1//EN" "http://www.w3.org/Graphics/SVG/1.1/DTD/svg11.dtd">
<!-- Creator: CorelDRAW 2018 (64-Bit Evaluation Version) -->
<svg xmlns="http://www.w3.org/2000/svg" xml:space="preserve" width="193.146mm" height="70.1144mm" version="1.1" style="shape-rendering:geometricPrecision; text-rendering:geometricPrecision; image-rendering:optimizeQuality; fill-rule:evenodd; clip-rule:evenodd"
viewBox="0 0 19314.58 7011.44"
 xmlns:xlink="http://www.w3.org/1999/xlink">
 <defs>
  <style type="text/css">
   <![CDATA[
    .fil0 {fill:#1B78B9}
    .fil1 {fill:#6E6F71}
   ]]>
  </style>
 </defs>
 <g id="Layer_x0020_1">
  <metadata id="CorelCorpID_0Corel-Layer"/>
  <g id="_2925319563248">
   <path class="fil0" d="M2434.17 926.03c2174.74,0 3249.42,2608.04 1713.46,4147.63 -184.27,184.71 -459.84,370.85 -708.34,482.29 -281.41,126.19 -597.5,211.96 -1005.12,211.96l0 714.37c1252.05,0 2306.78,-689.36 2849.05,-1781.16 479.51,-965.46 381.35,-2302.72 -263.35,-3159.33 -55.33,-73.52 -100.7,-142.02 -159.22,-211.2 -157.33,-186 -383.89,-386.12 -578.11,-533.14 -512.33,-387.81 -1147.24,-585.79 -1848.37,-585.79l0 714.37z"/>
   <path class="fil0" d="M343.96 3174.99l0 185.21 714.37 0c0,-424.32 163.85,-765.86 402.74,-999.56 101.04,-98.84 258.58,-211.88 390.81,-270.64 544.03,-241.78 1157.65,-123.74 1528.72,244.39 356.56,353.72 429.4,583.58 429.4,1105.18 0,378.13 -217.25,717.07 -416.06,906.86 -384.26,366.85 -675,323.26 -959.77,389.6l0 714.38c1381.5,0 2562.36,-1391.32 1928.28,-2960.16 -275.03,-680.49 -1086.34,-1246.72 -1875.37,-1246.72 -862.34,0 -1575.17,453.91 -1923.01,1146.15 -101.35,201.71 -220.11,499.15 -220.11,785.31z"/>
   <path class="fil0" d="M1375.83 3360.2l0 3122.08 714.38 0 0 -3042.71c0,-606.43 687.92,-506.87 687.92,-79.37 0,176.26 -159.86,313.4 -343.96,317.5l0 714.37c637.57,0 1058.33,-470.07 1058.33,-1111.25 0,-530.32 -535.11,-1024.59 -1079.23,-997.23 -561.56,28.22 -1037.44,469.98 -1037.44,1076.61z"/>
   <path class="fil1" d="M10768.54 6482.28l317.5 0 0 -767.29 53.39 78.9c18.92,33.9 34.83,70.38 52.51,106.24 345.6,700.66 200.19,582.15 687.85,582.15l0 -1243.54c0,-110.48 -91.82,-79.38 -317.5,-79.38l0 846.67c-24.47,-28.15 0.34,8.76 -33.96,-45.41l-292.41 -607.17c-105.01,-226.1 -5.21,-194.09 -467.38,-194.09l0 1322.92z"/>
   <path class="fil1" d="M10027.71 5820.82l-211.67 0 0 -370.41c429.11,0 370.42,-53.35 370.42,264.58 0,81.33 -77.52,105.83 -158.75,105.83zm-529.17 -582.08l0 1243.54 317.5 0 0 -396.87c228.92,0 175.21,-13.18 449.79,396.87l370.42 0 -317.5 -449.79c229.46,-121.42 185.21,-244.8 185.21,-555.63 0,-391.6 -599.72,-317.5 -926.04,-317.5 -60.97,0 -79.38,18.42 -79.38,79.38z"/>
   <path class="fil1" d="M18732.5 3836.45l-343.96 0 0 -343.96 343.96 0c23.06,99.01 49.56,233.03 0,343.96zm-661.46 687.92l317.5 0 0 -396.88 185.21 0c19.02,71.26 43.99,96.17 86.46,151.66 47.37,61.87 62.53,93.08 108.02,156.57 94.86,132.41 204.57,88.65 414.06,88.65 -40.34,-151.08 -252.15,-309.29 -291.04,-476.25 255.32,-68.18 321.66,-846.67 -211.67,-846.67l-608.54 0 0 1322.92z"/>
   <path class="fil1" d="M10107.08 1878.53l-264.58 0 0 -370.41c396.98,0 370.41,-14.83 370.41,264.58 0,61.93 -43.9,105.83 -105.83,105.83zm-582.08 687.92l317.5 0 0 -423.33c209.07,0 186.85,30.67 449.79,423.33l343.96 0c-44.16,-165.38 -246.89,-310.87 -291.04,-476.25 247.3,-66.03 322.77,-846.67 -185.21,-846.67l-635 0 0 1322.92z"/>
   <path class="fil1" d="M7752.29 6217.7l-158.75 0 0 -767.29c396.53,0 343.96,-71.63 343.96,582.08 0,123.51 -61.69,185.21 -185.21,185.21zm-476.25 264.58c970.84,0 978.96,69.05 978.96,-873.12 0,-542.17 -462.13,-449.8 -978.96,-449.8l0 1322.92z"/>
   <path class="fil1" d="M13705.41 4101.03c0,-241.64 -20.61,-406.48 26.46,-608.54 165.87,-38.64 178.09,-38.64 343.96,0 45.53,195.42 45.53,545.41 0,740.83 -165.87,38.65 -178.09,38.65 -343.96,0 -13.82,-59.34 -26.46,-60.83 -26.46,-132.29zm-317.5 -502.71c0,437.56 -104.71,952.5 502.71,952.5 640.34,0 529.17,-491.41 529.17,-952.5 0,-570.38 -1031.88,-567.82 -1031.88,0z"/>
   <path class="fil1" d="M11906.25 4233.32c-473.15,110.23 -370.42,-52.29 -370.42,-661.45 0,-160.92 278.94,-100.69 370.42,-79.38 34.07,146.27 57.61,611.9 0,740.83zm-687.92 -687.91c0,496.34 -119.65,1005.41 502.71,1005.41 627.76,0 529.17,-488.36 529.17,-926.04 0,-637.28 -1031.88,-537.85 -1031.88,-79.37z"/>
   <path class="fil1" d="M8307.92 2037.28c0,345.64 151.52,540.86 504.89,551.39 138.74,4.13 309.36,-57.94 389.79,-132.96 208.49,-194.46 137.19,-803.99 137.19,-1212.18l-317.5 0 0 873.13c0,253.99 -396.87,253.99 -396.87,0l0 -873.13 -317.5 0 0 793.75z"/>
   <path class="fil1" d="M17303.75 3545.41l52.91 0c13.32,160.07 93.84,305.68 105.84,449.79l-264.59 0c28.32,-121.56 103.2,-331.46 105.84,-449.79zm-582.09 978.96l317.5 0c36.58,-76.24 58.06,-173.1 79.38,-264.59l423.33 0c38.93,81.12 40.45,183.46 79.38,264.59l317.5 0 -296.64 -973.36c-27.52,-99.62 -90.91,-237.45 -100.24,-349.56l-423.33 0 -396.88 1322.92z"/>
   <path class="fil1" d="M10080.62 4524.37c401.21,0 317.5,94.21 317.5,-661.46 110.36,126.96 286.93,497.27 396.88,661.46l343.96 0 -377.39 -649.91c-12.14,-55.89 24.63,-109.36 60.49,-168.93l290.44 -504.08 -343.96 0c-71.78,107.2 -110.98,209.02 -180.1,322.61 -36.08,59.31 -54.12,94.65 -84.18,153.94l-106.14 158.45c0,-724.8 82.89,-635 -317.5,-635l0 1322.92z"/>
   <path class="fil1" d="M7937.5 3836.45c-176.22,41.05 -132.55,26.46 -343.96,26.46l0 -370.42c367.37,0 370.42,-31.61 370.42,211.67 0,33.79 -17.15,111.45 -26.46,132.29zm-661.46 687.92l317.5 0 0 -396.88c333.92,0 687.92,40.66 687.92,-449.79 0,-583.77 -404.42,-476.25 -1005.42,-476.25l0 1322.92z"/>
   <path class="fil1" d="M12117.91 6482.28l846.67 0 0 -264.58 -529.17 0 0 -264.59 476.25 0 0 -291.04 -476.25 0 0 -211.66c599.15,0 529.17,53.7 529.17,-211.67 0,-60.96 -18.41,-79.38 -79.37,-79.38l-767.3 0 0 1322.92z"/>
   <path class="fil1" d="M8466.67 6482.28l846.66 0 0 -264.58 -529.16 0 0 -264.59 476.25 0 0 -291.04 -476.25 0 0 -211.66c599.14,0 529.16,53.7 529.16,-211.67 0,-60.96 -18.41,-79.38 -79.37,-79.38l-767.29 0 0 1322.92z"/>
   <path class="fil1" d="M14605 3545.41c0,585.92 -137.85,1118.44 741.75,979.87 265.59,-41.84 210.75,34.31 210.75,-662.37l-291.05 0 0 396.87c-204.82,0 -146.63,13.35 -317.5,-26.46 -45.52,-195.42 -45.52,-545.41 0,-740.83 275.32,-64.14 300.76,0 529.17,0 73.1,-313.77 14.39,-280.05 -152.59,-297.2 -260.8,-26.78 -720.53,-22.53 -720.53,350.12z"/>
   <path class="fil1" d="M13123.33 5556.24c0,611.84 -102.58,952.5 555.63,952.5 177.25,0 246.01,-49.56 396.87,-52.92l0 -635 -291.04 0 0 396.88c-416.55,0 -343.96,78.69 -343.96,-635 0,-71.46 12.63,-72.95 26.46,-132.29 268.17,-62.48 248.07,0 529.17,0 25.24,-108.34 26.45,-124.24 26.45,-264.59 -252.56,-21.01 -899.58,-168.06 -899.58,370.42z"/>
   <path class="fil1" d="M8413.75 3518.95l0 105.83c0,525.75 582.08,169.78 582.08,555.63 0,204.09 -387.32,56.66 -555.62,52.91 -17.9,76.83 -35.02,161.3 -52.92,238.13 176.86,14.72 926.04,328.42 926.04,-370.42 0,-308.15 -231.01,-341.54 -582.08,-423.33l0 -211.67c212.9,-17.71 172.49,-19.8 397.65,5.29 195.66,21.8 107.07,-24.9 157.97,-243.41 -293.73,-68.43 -873.12,-153.57 -873.12,291.04z"/>
   <path class="fil1" d="M7170.21 1508.12l343.96 0 0 978.95c0,110.49 91.81,79.38 317.5,79.38l0 -1058.33 370.41 0 0 -264.59 -1031.87 0 0 264.59z"/>
   <path class="fil1" d="M15769.16 3280.82l0 1164.17c0,60.96 18.41,79.38 79.38,79.38l767.29 0c0,-362.71 87.88,-291.05 -529.17,-291.05l0 -1031.87c-225.68,0 -317.5,-31.11 -317.5,79.37z"/>
   <path class="fil1" d="M12461.87 4524.37l820.21 0c0,-360.78 83.84,-291.05 -502.71,-291.05l0 -952.5c0,-110.48 -91.81,-79.37 -317.5,-79.37l0 1322.92z"/>
   <path class="fil1" d="M11138.96 1878.53c0,71.59 317.85,588.58 370.41,687.92l343.96 0c-125.32,-236.85 -272.22,-452.34 -396.87,-687.92 132.67,-198.13 237.74,-436.86 370.41,-635l-370.41 0c-37.6,161.38 -317.5,544.28 -317.5,635z"/>
   <polygon class="fil1" points="14313.96,6482.28 14631.45,6482.28 14631.45,5159.36 14313.96,5159.36 "/>
   <path class="fil1" d="M10795 2566.45l238.12 0c60.97,0 79.38,-18.41 79.38,-79.38l0 -1243.54 -317.5 0 0 1322.92z"/>
   <path class="fil1" d="M9498.54 3280.82l0 1164.17c0,110.48 91.82,79.38 317.5,79.38l0 -1322.92c-225.68,0 -317.5,-31.11 -317.5,79.37z"/>
   <path class="fil1" d="M13361.46 4841.86c2.21,99.6 12.96,116.6 69.77,168.35 135.76,123.7 462.79,108.83 485.85,-168.35 -69.58,-16.21 -77.75,-24.05 -132.29,-52.91 -125.99,238.11 -260.14,132.66 -291.04,0 -55.13,29.17 -62.29,36.16 -132.29,52.91z"/>
   <path class="fil1" d="M14313.96 4815.41c0,281.39 -46,238.12 317.49,238.12l0 -317.5c-225.68,0 -317.49,-31.11 -317.49,79.38z"/>
   <polygon class="fil1" points="9525,3095.62 9816.04,3095.62 9816.04,2778.12 9525,2778.12 "/>
   <path class="fil1" d="M8493.12 978.95c0,173.75 -11.15,158.75 185.21,158.75 116.2,0 116.2,-238.12 0,-238.12 -128.73,0 -185.21,-17.91 -185.21,79.37z"/>
   <path class="fil1" d="M8890 978.95c0,173.75 -11.15,158.75 185.21,158.75 116.19,0 116.19,-238.12 0,-238.12 -128.73,0 -185.21,-17.91 -185.21,79.37z"/>
  </g>
 </g>
</svg>
